# xmcd
#
# Track frame offsets:
#	150
#	12150
#	26207
#	37395
#	48205
#	57959
#	70589
#	81826
#	94384
#	107048
#	117698
#	126722
#	136717
#	150499
#	162183
#	173628
#	185020
#	203099
#	217058
#	229592
#	243639
#	255844
#	267181
#	275352
#	282712
#	286985
#	289882
#	293122
#	308021
#	320361
#	332860
#	341261
#
# Disc length: 4721 seconds
#
# Revision: 0
# Processed by: cddbd v1.5.2PL0 Copyright (c) Steve Scherf et al.
# Submitted via: EasyCDDAExtractor 12.0.1.1
#
DISCID=ea126f20
DTITLE=Johnny Cash - Complete Recording Sessions [Cd 17] 1966-1967 Sessions
DYEAR=2005
DGENRE=Country
TTITLE0=The Sound Of Laughter
TTITLE1=Joe Bean
TTITLE2=Bottom Of A Mountain
TTITLE3=Put The Sugar To Bed
TTITLE4=You Beat All I Ever Saw
TTITLE5=Jackson
TTITLE6=Pack Up Your Sorrows
TTITLE7=Red Velvet
TTITLE8=The Wind Changes
TTITLE9=On The Line
TTITLE10=Another Song To Sing
TTITLE11=The Flint Arrowhead
TTITLE12=Call Daddy From The Mine
TTITLE13=Long Legged Guitar Pickin' Man
TTITLE14=The Frozen Four-Hundred-P...
TTITLE15=You And Tennessee
TTITLE16=The Walls Of A Prison
TTITLE17=Shrimpin' Sailin'
TTITLE18=The Masterpiece
TTITLE19=The Whirl And The Suck
TTITLE20=Cisco Clifton's Fillin'station
TTITLE21=Fast Boat To Sidney
TTITLE22=You'll Be All Right
TTITLE23=From Sea To Shining Sea
TTITLE24=From Sea To Shining Sea
TTITLE25=Narr.: You And Tennessee
TTITLE26=Narr.: The Flint Arrowhead
TTITLE27=I Got A Woman
TTITLE28=What'd I Say
TTITLE29=Oh, What A Good Thing We Had
TTITLE30=No, No, No
TTITLE31=What'd I Say
EXTD=
EXTT0=
EXTT1=
EXTT2=
EXTT3=
EXTT4=
EXTT5=
EXTT6=
EXTT7=
EXTT8=
EXTT9=
EXTT10=
EXTT11=
EXTT12=
EXTT13=
EXTT14=
EXTT15=
EXTT16=
EXTT17=
EXTT18=
EXTT19=
EXTT20=
EXTT21=
EXTT22=
EXTT23=
EXTT24=
EXTT25=
EXTT26=
EXTT27=
EXTT28=
EXTT29=
EXTT30=
EXTT31=
PLAYORDER=
